<?xml version="1.0" encoding="UTF-8" standalone="no"?>
<svg
   width="295.27539"
   height="295.27539"
   viewBox="0 0 295.27539 295.27539"
   version="1.1"
   xml:space="preserve"
   style="clip-rule:evenodd;fill-rule:evenodd;stroke-linejoin:round;stroke-miterlimit:2"
   id="svg7"
   sodipodi:docname="fazyrv.svg"
   inkscape:version="1.4.2 (1:1.4.2+202505120738+ebf0e940d0)"
   xmlns:inkscape="http://www.inkscape.org/namespaces/inkscape"
   xmlns:sodipodi="http://sodipodi.sourceforge.net/DTD/sodipodi-0.dtd"
   xmlns="http://www.w3.org/2000/svg"
   xmlns:svg="http://www.w3.org/2000/svg"><defs
   id="defs7" /><sodipodi:namedview
   id="namedview7"
   pagecolor="#505050"
   bordercolor="#eeeeee"
   borderopacity="1"
   inkscape:showpageshadow="0"
   inkscape:pageopacity="0"
   inkscape:pagecheckerboard="0"
   inkscape:deskcolor="#505050"
   inkscape:zoom="0.91116609"
   inkscape:cx="167.36795"
   inkscape:cy="280.40991"
   inkscape:window-width="1920"
   inkscape:window-height="1055"
   inkscape:window-x="1920"
   inkscape:window-y="476"
   inkscape:window-maximized="1"
   inkscape:current-layer="svg7" />
    
    <path
   id="rect2"
   style="clip-rule:evenodd;fill:#169492;fill-rule:evenodd;stroke-width:0.78125;stroke-linejoin:round;stroke-miterlimit:2"
   d="M 0,0 V 295.27539 H 295.27539 V 94.488281 H 236.2207 V 177.16602 H 200.78711 V 94.488281 H 118.10938 V 59.054687 h 82.67773 V 0 Z m 236.2207,0 v 59.054688 h 59.05469 V 0 Z M 29.527345,147.63867 h 35.433594 v 82.67774 h 82.675781 v 35.83007 H 29.527345 Z M 176.0332,216.26172 h 19.23438 c 2.52714,0 4.92509,0.24689 7.19531,0.73828 2.26881,0.49138 4.25817,1.30998 5.9668,2.45703 1.70723,1.14704 3.06366,2.69112 4.07031,4.63281 1.00524,1.94169 1.50977,4.36362 1.50977,7.26563 0,3.50992 -0.91313,6.49226 -2.73828,8.94922 -1.82517,2.45694 -4.49204,4.01426 -8.00196,4.66992 l 12.63672,20.98828 h -13.1289 l -10.38868,-19.86523 h -5.40429 v 19.86523 H 176.0332 Z m 40.57422,0 h 12.4961 l 12.2832,32.57226 h 0.14063 l 12.49609,-32.57226 h 11.72266 l -20.49805,49.70117 h -8.77539 z m -29.62304,9.26758 v 11.30078 h 6.45703 c 0.98278,0 2.02429,-0.0353 3.125,-0.10547 1.0993,-0.0702 2.0923,-0.27987 2.98242,-0.63086 0.88871,-0.35099 1.62548,-0.90208 2.21094,-1.65039 0.58404,-0.74832 0.8789,-1.80057 0.8789,-3.1582 0,-1.26358 -0.25958,-2.27122 -0.77343,-3.01954 -0.51526,-0.74832 -1.1702,-1.32142 -1.96485,-1.71875 -0.79605,-0.39732 -1.70917,-0.66625 -2.73828,-0.80664 -1.03051,-0.14039 -2.0348,-0.21093 -3.01758,-0.21093 z" />
    
    
    
    
    
</svg>
